<?xml version="1.0" encoding="UTF-8"?>
<svg id="_图层_1" data-name="图层 1" xmlns="http://www.w3.org/2000/svg" viewBox="0 0 3501.23 3504.47">
  <defs>
    <style>
      .cls-1 {
        fill: #fff;
      }

      .cls-2, .cls-3 {
        fill: #000000;
      }

      .cls-3 {
        stroke: #fff;
        stroke-miterlimit: 10;
      }
    </style>
  </defs>
  <path class="cls-2" d="M1873.25,2976.24c-672.65,0-1217.95-545.29-1217.95-1217.95S1200.59,540.35,1873.25,540.35s1209.42,536.8,1217.85,1202.2c-8.44-750.37-619.33-1356.06-1371.7-1356.06S347.59,1000.67,347.59,1758.29s614.18,1371.8,1371.8,1371.8,1363.26-605.69,1371.7-1356.06c-8.43,665.4-550.45,1202.2-1217.85,1202.2Z"/>
  <path class="cls-3" d="M.52,3.79c-.33.3,203.25,275.72,835.18,992.18,382.43,433.59,500.33,550.92,509.09,759.09,6.04,143.51-40.88,303.9-468.18,813.64C423.17,3109.61-2.82,3500.19.52,3503.79c7.91,8.54,971.55-826,971.55-826,394.88-341.98,596.02-513.07,777.27-518.18,153.28-4.32,296.58,54.03,876.92,556.01,505.95,437.64,864.44,797.59,874.26,788.17,10.45-10.02-368.97-442.67-758.86-891.54-496.78-571.93-583.15-678.11-587.77-857.19-2.92-112.92,26.41-264.68,550-881.82C3117,386.32,3503.58,3.62,3500.52.52c-3.15-3.18-418.02,391.95-883,795.45-560.78,486.63-697.67,554.35-863.64,559.09-84.01,2.4-277.12-8.43-823.15-449.47C373.5,455.49.96,3.4.52,3.79Z"/>
  <path class="cls-2" d="M2731.16,1064.16c6.93-4.97,91.38,71.73,159.09,204.55,78.27,153.51,88.39,292.16,77.27,295.45-12.47,3.69-38.12-166.74-140.91-195.45-61.67-17.23-127.75,23.08-131.82,13.64-4.39-10.21,83.28-32.93,109.09-95.45,38.1-92.32-81.3-216.58-72.73-222.73Z"/>
  <path class="cls-2" d="M2995.51,1982.21c8.15,2.94-9.46,112.19-75.17,247.99-73.01,150.88-161.8,244.42-171,238.5-10.23-6.59,95.4-125.07,56.45-225.87-24.85-64.3-97.96-94.03-91.07-106.62,7.31-13.36,79.46,39.05,148.26,18.85,94.96-27.88,123-176.29,132.53-172.85Z"/>
  <path class="cls-1" d="M1032.67,1087.69c-16.43,18.55,438.93,292.79,453.11,657.27,14.15,363.75-416.82,670.72-396.69,690.2,19.9,19.26,304.95-412.18,666.69-415.51,377.67-3.47,686.52,461.12,702,446.09,15.29-14.85-431.52-326.57-432-711.39-.49-392.31,463.07-708.49,445.81-725.78-17.09-17.13-328.11,437-725.2,444.04-382.19,6.78-697.52-403.21-713.72-384.93Z"/>
  <path class="cls-2" d="M2058.65,1753.57c-1.04,97.83-1.91,179.33-59.49,236.46-56.92,56.47-136.24,56.37-247.29,56.24-109.61-.13-185.67-.23-244.17-54.78-64.49-60.14-67.43-148.94-70.43-239.48-3.05-92.13-6.03-181.91,56.35-252,76.26-85.69,197.42-82.66,256.91-81.16,56.68,1.42,181.99,4.56,256.48,96.82,53.48,66.23,52.66,143.58,51.65,237.91Z"/>
  <circle class="cls-1" cx="1750.52" cy="1753.79" r="224.11"/>
  <circle class="cls-2" cx="1750.52" cy="1753.79" r="161.28"/>
  <circle class="cls-2" cx="1940.73" cy="1754.29" r="67.48"/>
  <rect class="cls-1" x="1714.08" y="1357.78" width="63.39" height="780.28" transform="translate(-724.64 1746.41) rotate(-45)"/>
  <rect class="cls-1" x="1732.69" y="1385.65" width="63.39" height="728.81" transform="translate(1754.25 -735.03) rotate(45)"/>
</svg>