<?xml version="1.0" encoding="UTF-8"?>
<svg id="a" data-name="图层 1" xmlns="http://www.w3.org/2000/svg" viewBox="0 0 959.13 839.32">
  <defs>
    <style>
      .b {
        stroke: #fff;
        stroke-miterlimit: 10;
      }

      .b, .c {
        fill: #fff;
      }
    </style>
  </defs>
  <path d="M823.21,514.6c19.27,60.12-138.99,164.59-353.49,233.35-214.5,68.76-404,75.76-423.27,15.64-19.27-60.12,136.53-162.96,348.47-231.73C155.88,609.31-19.77,725.83,1.79,793.07c21.56,67.24,235.15,59.83,476.74-17.62,241.59-77.44,419.85-195.12,398.14-262.83s-232.2-59.93-471.72,16.02c212.43-67.26,399.13-73.69,418.25-14.04h0Z"/>
  <path d="M480.47,0c123.12,0,224.51,101.39,224.51,217.27,0,188.3-224.51,514.2-224.51,514.2,0,0-224.51-325.9-224.51-514.2C255.96,101.39,357.35,0,480.47,0Z"/>
  <path class="c" d="M539.2,351.62c-63.35,24.38-134.47-7.2-158.86-70.55s7.2-134.47,70.55-158.86c63.35-24.38,133.36,6.71,158.28,69.07-28-70.36-107.49-105.26-178.34-77.99-70.86,27.27-106.93,107.57-79.47,178.93,27.46,71.35,107.57,106.93,178.92,79.47,71.35-27.46,106.43-106.46,80.03-177.44,23.33,62.97-8.26,133.18-71.12,157.37h0Z"/>
  <path class="b" d="M299.53,160.57s23.66,15.1,93.07,51.29c42.01,21.9,54.47,27.4,61.27,43.06,4.69,10.8,5.82,24.44-11.85,76-18.75,54.71-39.83,97.11-39.47,97.29.86.42,49.98-91.76,49.98-91.76,20.13-37.77,30.47-56.78,44.18-62.5,11.59-4.84,24.27-4.6,83.42,16.71,51.57,18.57,89.58,35.55,90.05,34.54.5-1.07-41.24-22.99-84.27-45.84-54.82-29.11-64.55-34.69-70.17-48.25-3.55-8.55-5.77-21.02,16.1-83.62,17.26-49.39,35.55-90.03,35.23-90.18-.33-.15-20.43,42.27-44.11,86.81-28.56,53.72-37.03,62.92-49.58,68.17-6.35,2.66-21.44,7.51-76.17-10.14-55.86-18.02-97.65-41.62-97.67-41.58Z"/>
  <path d="M912.67,763.8c-19.27,60.12-208.78,53.12-423.28-15.64-214.5-68.76-372.76-173.23-353.49-233.35,19.27-60.12,205.83-53.22,418.25,14.04-239.52-75.95-450.17-83.26-471.72-16.01-21.55,67.24,156.55,185.39,398.14,262.83,241.59,77.44,455.04,85.33,476.74,17.61,21.71-67.71-154.09-183.76-393.13-261.21,211.94,68.77,367.59,172.08,348.47,231.73h0Z"/>
</svg>